<svg xmlns="http://www.w3.org/2000/svg" width="305" height="159" viewBox="0 0 305 159"><path fill-rule="evenodd" clip-rule="evenodd" d="M144.836 13.2877H13.2877V144.836H144.836V13.2877ZM0 0V158.124H158.124V0H0Z" fill="currentColor"/>
<path fill-rule="evenodd" clip-rule="evenodd" d="M79.0625 85.3868V71.9463H238.767V85.3868H79.0625Z" fill="currentColor"/>
<path d="M230.99 6.92233C231.071 6.12583 232.231 6.12582 232.312 6.92232L237.911 62.4207C237.964 62.9473 238.582 63.2032 238.991 62.8684L282.194 27.5843C282.814 27.0779 283.635 27.8986 283.128 28.5186L247.844 71.7212C247.509 72.1311 247.765 72.7488 248.292 72.8019L303.79 78.4011C304.587 78.4814 304.587 79.6421 303.79 79.7224L248.292 85.3216C247.765 85.3748 247.509 85.9925 247.844 86.4024L283.128 129.605C283.635 130.225 282.814 131.046 282.194 130.539L238.991 95.2552C238.582 94.9204 237.964 95.1762 237.911 95.7028L232.312 151.201C232.231 151.998 231.071 151.998 230.99 151.201L225.391 95.7028C225.338 95.1762 224.72 94.9204 224.31 95.2552L181.108 130.539C180.488 131.046 179.667 130.225 180.173 129.605L215.457 86.4024C215.792 85.9925 215.536 85.3748 215.01 85.3216L159.511 79.7224C158.715 79.6421 158.715 78.4814 159.511 78.4011L215.01 72.8019C215.536 72.7488 215.792 72.1311 215.457 71.7212L180.173 28.5187C179.667 27.8986 180.488 27.0779 181.108 27.5843L224.31 62.8684C224.72 63.2031 225.338 62.9473 225.391 62.4207L230.99 6.92233Z" fill="currentColor"/>
</svg>
